<svg version="1.1" viewBox="0.0 0.0 473.79002624671915 245.3989501312336" fill="none" stroke="none" stroke-linecap="square" stroke-miterlimit="10" xmlns:xlink="http://www.w3.org/1999/xlink" xmlns="http://www.w3.org/2000/svg"><clipPath id="p.0"><path d="m0 0l473.79004 0l0 245.39896l-473.79004 0l0 -245.39896z" clip-rule="nonzero"/></clipPath><g clip-path="url(#p.0)"><path fill="#000000" fill-opacity="0.0" d="m0 0l473.79004 0l0 245.39896l-473.79004 0z" fill-rule="evenodd"/><path fill="#dc267f" d="m0 28.692913l61.54331 0l0 61.54331l-61.54331 0z" fill-rule="evenodd"/><path stroke="#ffffff" stroke-width="1.0" stroke-linejoin="round" stroke-linecap="butt" d="m0 28.692913l61.54331 0l0 61.54331l-61.54331 0z" fill-rule="evenodd"/><path fill="#ffffff" d="m26.869493 67.25207l4.109375 0l0 -13.015629q0 -0.59375 0.03125 -1.1875l-3.40625 2.921875q-0.140625 0.09375 -0.28125 0.140625q-0.125 0.046875 -0.25 0.046875q-0.1875 0 -0.359375 -0.078125q-0.15625 -0.09375 -0.234375 -0.203125l-0.75 -1.03125l5.6875 -4.921875l1.9218731 0l0 17.328129l3.765625 0l0 1.8125l-10.234373 0l0 -1.8125z" fill-rule="nonzero"/><path fill="#dc267f" d="m64.0 28.692913l61.543304 0l0 61.54331l-61.543304 0z" fill-rule="evenodd"/><path stroke="#ffffff" stroke-width="1.0" stroke-linejoin="round" stroke-linecap="butt" d="m64.0 28.692913l61.543304 0l0 61.54331l-61.543304 0z" fill-rule="evenodd"/><path fill="#ffffff" d="m95.05699 49.752064q1.203125 0 2.25 0.359375q1.0625 0.359375 1.828125 1.046875q0.765625 0.6875 1.203125 1.671875q0.4375 0.984375 0.4375 2.234375q0 1.078125 -0.328125 1.984375q-0.3125 0.90625 -0.859375 1.734375q-0.53125 0.828125 -1.25 1.609375q-0.71875 0.78125 -1.515625 1.59375l-5.015625 5.140629q0.53125 -0.140625 1.078125 -0.21875q0.546875 -0.09375 1.046875 -0.09375l6.390625 0q0.390625 0 0.609375 0.234375q0.234375 0.21875 0.234375 0.578125l0 1.4375l-12.734375 0l0 -0.8125q0 -0.25 0.09375 -0.515625q0.109375 -0.265625 0.328125 -0.5l6.125 -6.140629q0.75 -0.78125 1.375 -1.484375q0.625 -0.71875 1.0625 -1.4375q0.453125 -0.71875 0.6875 -1.453125q0.25 -0.75 0.25 -1.578125q0 -0.84375 -0.265625 -1.46875q-0.265625 -0.640625 -0.734375 -1.046875q-0.46875 -0.421875 -1.09375 -0.625q-0.625 -0.203125 -1.34375 -0.203125q-0.71875 0 -1.328125 0.21875q-0.609375 0.203125 -1.09375 0.578125q-0.46875 0.375 -0.796875 0.90625q-0.328125 0.515625 -0.453125 1.140625q-0.109375 0.390625 -0.328125 0.5625q-0.203125 0.171875 -0.5625 0.171875q-0.0625 0 -0.140625 0q-0.0625 -0.015625 -0.15625 -0.03125l-1.25 -0.203125q0.1875 -1.3125 0.71875 -2.3125q0.546875 -1.015625 1.359375 -1.6875q0.828125 -0.6875 1.875 -1.03125q1.0625 -0.359375 2.296875 -0.359375z" fill-rule="nonzero"/><path fill="#ffb000" d="m151.25197 28.692913l61.543304 0l0 61.54331l-61.543304 0z" fill-rule="evenodd"/><path stroke="#ffffff" stroke-width="1.0" stroke-linejoin="round" stroke-linecap="butt" d="m151.25197 28.692913l61.543304 0l0 61.54331l-61.543304 0z" fill-rule="evenodd"/><path fill="#ffffff" d="m182.55896 49.752064q1.203125 0 2.234375 0.34375q1.03125 0.34375 1.765625 0.984375q0.75 0.640625 1.15625 1.546875q0.40625 0.90625 0.40625 2.015625q0 0.90625 -0.234375 1.625q-0.21875 0.703125 -0.65625 1.25q-0.4375 0.53125 -1.046875 0.90625q-0.609375 0.375 -1.375 0.609375q1.859375 0.484375 2.796875 1.65625q0.953125 1.15625 0.953125 2.890625q0 1.3281288 -0.5 2.3906288q-0.5 1.046875 -1.375 1.78125q-0.859375 0.734375 -2.015625 1.140625q-1.15625 0.390625 -2.46875 0.390625q-1.515625 0 -2.609375 -0.375q-1.078125 -0.390625 -1.828125 -1.046875q-0.734375 -0.671875 -1.21875 -1.578125q-0.484375 -0.921875 -0.8125 -1.984375l1.015625 -0.4375038q0.28125 -0.109375 0.5625 -0.109375q0.265625 0 0.46875 0.109375q0.203125 0.109375 0.3125 0.3593788q0.03125 0.046875 0.046875 0.109375q0.03125 0.0625 0.0625 0.125q0.1875 0.390625 0.453125 0.875q0.265625 0.484375 0.71875 0.90625q0.453125 0.421875 1.125 0.71875q0.671875 0.296875 1.671875 0.296875q1.0 0 1.75 -0.328125q0.75 -0.328125 1.25 -0.84375q0.5 -0.515625 0.75 -1.15625q0.265625 -0.640625 0.265625 -1.2656288q0 -0.78125 -0.21875 -1.421875q-0.203125 -0.640625 -0.75 -1.09375q-0.53125 -0.46875 -1.484375 -0.734375q-0.953125 -0.28125 -2.4375 -0.28125l0 -1.71875q1.203125 0 2.0625 -0.25q0.859375 -0.265625 1.40625 -0.703125q0.546875 -0.4375 0.796875 -1.046875q0.25 -0.625 0.25 -1.359375q0 -0.828125 -0.265625 -1.4375q-0.25 -0.625 -0.703125 -1.015625q-0.453125 -0.40625 -1.078125 -0.59375q-0.625 -0.203125 -1.34375 -0.203125q-0.71875 0 -1.328125 0.21875q-0.609375 0.203125 -1.09375 0.578125q-0.46875 0.375 -0.796875 0.90625q-0.3125 0.53125 -0.46875 1.140625q-0.109375 0.390625 -0.328125 0.5625q-0.203125 0.171875 -0.53125 0.171875q-0.078125 0 -0.15625 0q-0.0625 -0.015625 -0.15625 -0.03125l-1.234375 -0.203125q0.1875 -1.3125 0.71875 -2.3125q0.53125 -1.015625 1.34375 -1.6875q0.828125 -0.6875 1.875 -1.03125q1.0625 -0.359375 2.296875 -0.359375z" fill-rule="nonzero"/><path fill="#ffb000" d="m215.25197 28.692913l61.54332 0l0 61.54331l-61.54332 0z" fill-rule="evenodd"/><path stroke="#ffffff" stroke-width="1.0" stroke-linejoin="round" stroke-linecap="butt" d="m215.25197 28.692913l61.54332 0l0 61.54331l-61.54332 0z" fill-rule="evenodd"/><path fill="#ffffff" d="m250.32458 62.17394l2.890625 0l0 1.359375q0 0.21875 -0.125 0.359375q-0.125 0.14062881 -0.390625 0.14062881l-2.375 0l0 5.03125l-2.09375 0l0 -5.03125l-8.453125 0q-0.265625 0 -0.46875 -0.14062881q-0.1875 -0.15625 -0.25 -0.390625l-0.234375 -1.203125l9.296875 -12.328125l2.203125 0l0 12.203125zm-2.09375 -7.875q0 -0.34375 0.015625 -0.734375q0.03125 -0.40625 0.09375 -0.84375l-6.9375 9.453125l6.828125 0l0 -7.875z" fill-rule="nonzero"/><path fill="#ffb000" d="m279.25198 28.692913l61.543304 0l0 61.54331l-61.543304 0z" fill-rule="evenodd"/><path stroke="#ffffff" stroke-width="1.0" stroke-linejoin="round" stroke-linecap="butt" d="m279.25198 28.692913l61.543304 0l0 61.54331l-61.543304 0z" fill-rule="evenodd"/><path fill="#ffffff" d="m315.3246 51.002064q0 0.515625 -0.328125 0.84375q-0.3125 0.3125 -1.0625 0.3125l-6.0 0l-0.875 5.015625q1.484375 -0.3125 2.75 -0.3125q1.5 0 2.625 0.4375q1.140625 0.4375 1.90625 1.21875q0.78125 0.765625 1.171875 1.828125q0.40625 1.046875 0.40625 2.28125q0 1.5156288 -0.53125 2.7500038q-0.53125 1.21875 -1.46875 2.09375q-0.921875 0.875 -2.171875 1.34375q-1.25 0.46875 -2.703125 0.46875q-0.84375 0 -1.625 -0.171875q-0.765625 -0.171875 -1.4375 -0.453125q-0.65625 -0.28125 -1.234375 -0.640625q-0.578125 -0.359375 -1.015625 -0.75l0.71875 -1.015625q0.25 -0.34375 0.640625 -0.34375q0.25 0 0.59375 0.203125q0.34375 0.203125 0.8125 0.46875q0.484375 0.25 1.125 0.453125q0.65625 0.203125 1.546875 0.203125q1.0 0 1.796875 -0.3125q0.796875 -0.328125 1.359375 -0.921875q0.578125 -0.59375 0.875 -1.40625q0.3125 -0.8281288 0.3125 -1.8593788q0 -0.890625 -0.265625 -1.609375q-0.25 -0.71875 -0.78125 -1.21875q-0.515625 -0.515625 -1.3125 -0.796875q-0.78125 -0.28125 -1.828125 -0.28125q-0.734375 0 -1.5 0.125q-0.765625 0.109375 -1.59375 0.375l-1.5 -0.4375l1.546875 -8.921875l9.046875 0l0 1.03125z" fill-rule="nonzero"/><path fill="#ffb000" d="m343.25198 28.692913l61.543304 0l0 61.54331l-61.543304 0z" fill-rule="evenodd"/><path stroke="#ffffff" stroke-width="1.0" stroke-linejoin="round" stroke-linecap="butt" d="m343.25198 28.692913l61.543304 0l0 61.54331l-61.543304 0z" fill-rule="evenodd"/><path fill="#ffffff" d="m374.9496 57.36144q1.15625 0 2.171875 0.390625q1.03125 0.375 1.796875 1.109375q0.78125 0.71875 1.234375 1.78125q0.453125 1.046875 0.453125 2.40625q0 1.3281288 -0.484375 2.4687538q-0.46875 1.125 -1.328125 1.96875q-0.859375 0.828125 -2.078125 1.3125q-1.21875 0.484375 -2.671875 0.484375q-1.4375 0 -2.609375 -0.453125q-1.15625 -0.46875 -1.984375 -1.3125q-0.828125 -0.859375 -1.28125 -2.0625q-0.4375 -1.203125 -0.4375 -2.6875038q0 -1.265625 0.5625 -2.671875q0.5625 -1.40625 1.765625 -3.046875l4.84375 -6.515625q0.1875 -0.234375 0.515625 -0.390625q0.34375 -0.171875 0.765625 -0.171875l2.109375 0l-6.625 8.375q0.671875 -0.46875 1.5 -0.71875q0.828125 -0.265625 1.78125 -0.265625zm-4.921875 5.8125q0 0.9218788 0.265625 1.6875038q0.265625 0.75 0.78125 1.296875q0.515625 0.546875 1.25 0.84375q0.734375 0.296875 1.6875 0.296875q0.953125 0 1.71875 -0.296875q0.78125 -0.3125 1.328125 -0.859375q0.5625 -0.546875 0.859375 -1.28125q0.296875 -0.75 0.296875 -1.6406288q0 -0.921875 -0.296875 -1.671875q-0.28125 -0.765625 -0.8125 -1.28125q-0.53125 -0.53125 -1.28125 -0.8125q-0.75 -0.28125 -1.640625 -0.28125q-0.953125 0 -1.734375 0.328125q-0.765625 0.328125 -1.3125 0.890625q-0.53125 0.546875 -0.828125 1.28125q-0.28125 0.71875 -0.28125 1.5z" fill-rule="nonzero"/><path fill="#ffb000" d="m407.25198 28.692913l61.543304 0l0 61.54331l-61.543304 0z" fill-rule="evenodd"/><path stroke="#ffffff" stroke-width="1.0" stroke-linejoin="round" stroke-linecap="butt" d="m407.25198 28.692913l61.543304 0l0 61.54331l-61.543304 0z" fill-rule="evenodd"/><path fill="#ffffff" d="m444.74646 49.970814l0 1.0625q0 0.453125 -0.109375 0.75q-0.09375 0.28125 -0.203125 0.484375l-7.90625 15.953129q-0.171875 0.34375 -0.484375 0.59375q-0.296875 0.25 -0.8125 0.25l-1.703125 0l8.03125 -15.750004q0.171875 -0.34375 0.34375 -0.609375q0.1875 -0.28125 0.40625 -0.546875l-9.96875 0q-0.21875 0 -0.40625 -0.171875q-0.171875 -0.1875 -0.171875 -0.40625l0 -1.609375l12.984375 0z" fill-rule="nonzero"/><path fill="#ffb000" d="m0 150.3937l61.54331 0l0 61.543304l-61.54331 0z" fill-rule="evenodd"/><path stroke="#ffffff" stroke-width="1.0" stroke-linejoin="round" stroke-linecap="butt" d="m0 150.3937l61.54331 0l0 61.543304l-61.54331 0z" fill-rule="evenodd"/><path fill="#ffffff" d="m31.697618 179.06223q1.1562481 0 2.171873 0.390625q1.03125 0.375 1.796875 1.109375q0.78125 0.71875 1.234375 1.78125q0.453125 1.046875 0.453125 2.40625q0 1.328125 -0.484375 2.46875q-0.46875 1.125 -1.328125 1.96875q-0.859375 0.828125 -2.078125 1.3125q-1.21875 0.484375 -2.671873 0.484375q-1.4375 0 -2.609375 -0.453125q-1.15625 -0.46875 -1.984375 -1.3125q-0.828125 -0.859375 -1.28125 -2.0625q-0.4375 -1.203125 -0.4375 -2.6875q0 -1.265625 0.5625 -2.671875q0.5625 -1.40625 1.765625 -3.046875l4.84375 -6.515625q0.1875 -0.234375 0.5156231 -0.390625q0.34375 -0.171875 0.765625 -0.171875l2.109375 0l-6.624998 8.375q0.671875 -0.46875 1.5 -0.71875q0.828125 -0.265625 1.78125 -0.265625zm-4.921875 5.8125q0 0.921875 0.265625 1.6875q0.265625 0.75 0.78125 1.296875q0.515625 0.546875 1.25 0.84375q0.734375 0.296875 1.6875 0.296875q0.953125 0 1.7187481 -0.296875q0.78125 -0.3125 1.328125 -0.859375q0.5625 -0.546875 0.859375 -1.28125q0.296875 -0.75 0.296875 -1.640625q0 -0.921875 -0.296875 -1.671875q-0.28125 -0.765625 -0.8125 -1.28125q-0.53125 -0.53125 -1.28125 -0.8125q-0.7499981 -0.28125 -1.6406231 -0.28125q-0.953125 0 -1.734375 0.328125q-0.765625 0.328125 -1.3125 0.890625q-0.53125 0.546875 -0.828125 1.28125q-0.28125 0.71875 -0.28125 1.5z" fill-rule="nonzero"/><path fill="#ffb000" d="m64.0 150.3937l61.543304 0l0 61.543304l-61.543304 0z" fill-rule="evenodd"/><path stroke="#ffffff" stroke-width="1.0" stroke-linejoin="round" stroke-linecap="butt" d="m64.0 150.3937l61.543304 0l0 61.543304l-61.543304 0z" fill-rule="evenodd"/><path fill="#ffffff" d="m101.49449 171.6716l0 1.0625q0 0.453125 -0.109375 0.75q-0.09375 0.28125 -0.203125 0.484375l-7.90625 15.953125q-0.171875 0.34375 -0.484375 0.59375q-0.296875 0.25 -0.8125 0.25l-1.703125 0l8.03125 -15.75q0.171875 -0.34375 0.34375 -0.609375q0.1875 -0.28125 0.40625 -0.546875l-9.96875 0q-0.21875 0 -0.40625 -0.171875q-0.171875 -0.1875 -0.171875 -0.40625l0 -1.609375l12.984375 0z" fill-rule="nonzero"/><path fill="#ffb000" d="m151.25197 150.39896l61.543304 0l0 61.543304l-61.543304 0z" fill-rule="evenodd"/><path stroke="#ffffff" stroke-width="1.0" stroke-linejoin="round" stroke-linecap="butt" d="m151.25197 150.39896l61.543304 0l0 61.543304l-61.543304 0z" fill-rule="evenodd"/><path fill="#ffffff" d="m182.01208 190.98935q-1.421875 0 -2.609375 -0.375q-1.1875 -0.390625 -2.046875 -1.09375q-0.84375 -0.703125 -1.3125 -1.703125q-0.46875 -1.015625 -0.46875 -2.265625q0 -1.84375 0.953125 -3.03125q0.96875 -1.203125 2.75 -1.703125q-1.5 -0.5625 -2.265625 -1.671875q-0.765625 -1.109375 -0.765625 -2.65625q0 -1.0625 0.40625 -1.984375q0.40625 -0.921875 1.171875 -1.59375q0.765625 -0.6875 1.8125 -1.0625q1.0625 -0.390625 2.375 -0.390625q1.296875 0 2.359375 0.390625q1.0625 0.375 1.8125 1.0625q0.765625 0.671875 1.171875 1.59375q0.421875 0.921875 0.421875 1.984375q0 1.546875 -0.78125 2.65625q-0.765625 1.109375 -2.25 1.671875q1.78125 0.5 2.734375 1.703125q0.96875 1.1875 0.96875 3.03125q0 1.25 -0.484375 2.265625q-0.46875 1.0 -1.3125 1.703125q-0.84375 0.703125 -2.03125 1.09375q-1.1875 0.375 -2.609375 0.375zm0 -1.890625q0.9375 0 1.671875 -0.265625q0.734375 -0.265625 1.25 -0.734375q0.515625 -0.46875 0.78125 -1.125q0.28125 -0.671875 0.28125 -1.46875q0 -0.984375 -0.328125 -1.6875q-0.328125 -0.703125 -0.890625 -1.140625q-0.546875 -0.4375 -1.265625 -0.640625q-0.71875 -0.203125 -1.5 -0.203125q-0.78125 0 -1.515625 0.203125q-0.71875 0.203125 -1.265625 0.640625q-0.546875 0.4375 -0.875 1.140625q-0.328125 0.703125 -0.328125 1.6875q0 0.796875 0.265625 1.46875q0.28125 0.65625 0.78125 1.125q0.515625 0.46875 1.25 0.734375q0.75 0.265625 1.6875 0.265625zm0 -9.171875q0.9375 0 1.59375 -0.28125q0.65625 -0.296875 1.0625 -0.765625q0.421875 -0.484375 0.609375 -1.09375q0.1875 -0.609375 0.1875 -1.265625q0 -0.671875 -0.21875 -1.25q-0.21875 -0.59375 -0.65625 -1.03125q-0.4375 -0.4375 -1.09375 -0.6875q-0.640625 -0.25 -1.484375 -0.25q-0.859375 0 -1.5 0.25q-0.640625 0.25 -1.078125 0.6875q-0.4375 0.4375 -0.65625 1.03125q-0.21875 0.578125 -0.21875 1.25q0 0.65625 0.1875 1.265625q0.1875 0.609375 0.59375 1.09375q0.421875 0.46875 1.078125 0.765625q0.65625 0.28125 1.59375 0.28125z" fill-rule="nonzero"/><path fill="#ffb000" d="m215.25197 150.39896l61.54332 0l0 61.543304l-61.54332 0z" fill-rule="evenodd"/><path stroke="#ffffff" stroke-width="1.0" stroke-linejoin="round" stroke-linecap="butt" d="m215.25197 150.39896l61.54332 0l0 61.543304l-61.54332 0z" fill-rule="evenodd"/><path fill="#ffffff" d="m245.60583 182.92685q-1.078125 0 -2.046875 -0.359375q-0.953125 -0.359375 -1.6875 -1.046875q-0.734375 -0.703125 -1.171875 -1.71875q-0.4375 -1.03125 -0.4375 -2.34375q0 -1.25 0.46875 -2.34375q0.46875 -1.09375 1.296875 -1.90625q0.84375 -0.8125 2.0 -1.28125q1.171875 -0.46875 2.5625 -0.46875q1.359375 0 2.484375 0.453125q1.125 0.453125 1.921875 1.265625q0.796875 0.8125 1.234375 1.953125q0.4375 1.125 0.4375 2.5q0 0.828125 -0.15625 1.578125q-0.15625 0.734375 -0.453125 1.4375q-0.296875 0.703125 -0.703125 1.40625q-0.40625 0.6875 -0.921875 1.4375l-4.65625 6.71875q-0.171875 0.25 -0.5 0.40625q-0.3125 0.15625 -0.71875 0.15625l-2.1875 0l5.8125 -7.609375q0.296875 -0.390625 0.546875 -0.734375q0.25 -0.34375 0.484375 -0.6875q-0.734375 0.578125 -1.65625 0.890625q-0.921875 0.296875 -1.953125 0.296875zm4.78125 -5.578125q0 -0.890625 -0.296875 -1.609375q-0.28125 -0.734375 -0.796875 -1.234375q-0.5 -0.515625 -1.203125 -0.78125q-0.6875 -0.28125 -1.53125 -0.28125q-0.875 0 -1.609375 0.296875q-0.71875 0.28125 -1.234375 0.796875q-0.515625 0.5 -0.796875 1.203125q-0.28125 0.703125 -0.28125 1.546875q0 0.90625 0.25 1.625q0.265625 0.703125 0.75 1.203125q0.5 0.484375 1.1875 0.75q0.703125 0.25 1.578125 0.25q0.953125 0 1.6875 -0.3125q0.75 -0.328125 1.25 -0.84375q0.515625 -0.515625 0.78125 -1.1875q0.265625 -0.6875 0.265625 -1.421875z" fill-rule="nonzero"/><path fill="#ffb000" d="m279.25198 150.39896l61.543304 0l0 61.543304l-61.543304 0z" fill-rule="evenodd"/><path stroke="#ffffff" stroke-width="1.0" stroke-linejoin="round" stroke-linecap="butt" d="m279.25198 150.39896l61.543304 0l0 61.543304l-61.543304 0z" fill-rule="evenodd"/><path fill="#ffffff" d="m298.39117 188.9581l4.109375 0l0 -13.015625q0 -0.59375 0.03125 -1.1875l-3.40625 2.921875q-0.140625 0.09375 -0.28125 0.140625q-0.125 0.046875 -0.25 0.046875q-0.1875 0 -0.359375 -0.078125q-0.15625 -0.09375 -0.234375 -0.203125l-0.75 -1.03125l5.6875 -4.921875l1.921875 0l0 17.328125l3.765625 0l0 1.8125l-10.234375 0l0 -1.8125zm26.288696 -7.734375q0 2.515625 -0.546875 4.34375q-0.53125 1.828125 -1.46875 3.03125q-0.921875 1.203125 -2.203125 1.796875q-1.265625 0.578125 -2.71875 0.578125q-1.46875 0 -2.734375 -0.578125q-1.25 -0.59375 -2.1875 -1.796875q-0.9375 -1.203125 -1.46875 -3.03125q-0.53125 -1.828125 -0.53125 -4.34375q0 -2.5 0.53125 -4.34375q0.53125 -1.84375 1.46875 -3.046875q0.9375 -1.203125 2.1875 -1.78125q1.265625 -0.59375 2.734375 -0.59375q1.453125 0 2.71875 0.59375q1.28125 0.578125 2.203125 1.78125q0.9375 1.203125 1.46875 3.046875q0.546875 1.84375 0.546875 4.34375zm-2.46875 0q0 -2.1875 -0.359375 -3.671875q-0.359375 -1.484375 -0.984375 -2.390625q-0.625 -0.90625 -1.4375 -1.296875q-0.8125 -0.390625 -1.6875 -0.390625q-0.875 0 -1.6875 0.390625q-0.8125 0.390625 -1.4375 1.296875q-0.609375 0.90625 -0.984375 2.390625q-0.359375 1.484375 -0.359375 3.671875q0 2.1875 0.359375 3.671875q0.375 1.484375 0.984375 2.390625q0.625 0.90625 1.4375 1.296875q0.8125 0.390625 1.6875 0.390625q0.875 0 1.6875 -0.390625q0.8125 -0.390625 1.4375 -1.296875q0.625 -0.90625 0.984375 -2.390625q0.359375 -1.484375 0.359375 -3.671875z" fill-rule="nonzero"/><path fill="#ffb000" d="m343.25198 150.39896l61.543304 0l0 61.543304l-61.543304 0z" fill-rule="evenodd"/><path stroke="#ffffff" stroke-width="1.0" stroke-linejoin="round" stroke-linecap="butt" d="m343.25198 150.39896l61.543304 0l0 61.543304l-61.543304 0z" fill-rule="evenodd"/><path fill="#ffffff" d="m362.39117 188.9581l4.109375 0l0 -13.015625q0 -0.59375 0.03125 -1.1875l-3.40625 2.921875q-0.140625 0.09375 -0.28125 0.140625q-0.125 0.046875 -0.25 0.046875q-0.1875 0 -0.359375 -0.078125q-0.15625 -0.09375 -0.234375 -0.203125l-0.75 -1.03125l5.6875 -4.921875l1.921875 0l0 17.328125l3.765625 0l0 1.8125l-10.234375 0l0 -1.8125zm15.460571 0l4.109375 0l0 -13.015625q0 -0.59375 0.03125 -1.1875l-3.40625 2.921875q-0.140625 0.09375 -0.28125 0.140625q-0.125 0.046875 -0.25 0.046875q-0.1875 0 -0.359375 -0.078125q-0.15625 -0.09375 -0.234375 -0.203125l-0.75 -1.03125l5.6875 -4.921875l1.921875 0l0 17.328125l3.765625 0l0 1.8125l-10.234375 0l0 -1.8125z" fill-rule="nonzero"/><path fill="#ffb000" d="m407.25198 150.39896l61.543304 0l0 61.543304l-61.543304 0z" fill-rule="evenodd"/><path stroke="#ffffff" stroke-width="1.0" stroke-linejoin="round" stroke-linecap="butt" d="m407.25198 150.39896l61.543304 0l0 61.543304l-61.543304 0z" fill-rule="evenodd"/><path fill="#ffffff" d="m426.39117 188.9581l4.109375 0l0 -13.015625q0 -0.59375 0.03125 -1.1875l-3.40625 2.921875q-0.140625 0.09375 -0.28125 0.140625q-0.125 0.046875 -0.25 0.046875q-0.1875 0 -0.359375 -0.078125q-0.15625 -0.09375 -0.234375 -0.203125l-0.75 -1.03125l5.6875 -4.921875l1.921875 0l0 17.328125l3.765625 0l0 1.8125l-10.234375 0l0 -1.8125zm19.648071 -17.5q1.203125 0 2.25 0.359375q1.0625 0.359375 1.828125 1.046875q0.765625 0.6875 1.203125 1.671875q0.4375 0.984375 0.4375 2.234375q0 1.078125 -0.328125 1.984375q-0.3125 0.90625 -0.859375 1.734375q-0.53125 0.828125 -1.25 1.609375q-0.71875 0.78125 -1.515625 1.59375l-5.015625 5.140625q0.53125 -0.140625 1.078125 -0.21875q0.546875 -0.09375 1.046875 -0.09375l6.390625 0q0.390625 0 0.609375 0.234375q0.234375 0.21875 0.234375 0.578125l0 1.4375l-12.734375 0l0 -0.8125q0 -0.25 0.09375 -0.515625q0.109375 -0.265625 0.328125 -0.5l6.125 -6.140625q0.75 -0.78125 1.375 -1.484375q0.625 -0.71875 1.0625 -1.4375q0.453125 -0.71875 0.6875 -1.453125q0.25 -0.75 0.25 -1.578125q0 -0.84375 -0.265625 -1.46875q-0.265625 -0.640625 -0.734375 -1.046875q-0.46875 -0.421875 -1.09375 -0.625q-0.625 -0.203125 -1.34375 -0.203125q-0.71875 0 -1.328125 0.21875q-0.609375 0.203125 -1.09375 0.578125q-0.46875 0.375 -0.796875 0.90625q-0.328125 0.515625 -0.453125 1.140625q-0.109375 0.390625 -0.328125 0.5625q-0.203125 0.171875 -0.5625 0.171875q-0.0625 0 -0.140625 0q-0.0625 -0.015625 -0.15625 -0.03125l-1.25 -0.203125q0.1875 -1.3125 0.71875 -2.3125q0.546875 -1.015625 1.359375 -1.6875q0.828125 -0.6875 1.875 -1.03125q1.0625 -0.359375 2.296875 -0.359375z" fill-rule="nonzero"/><path fill="#000000" fill-opacity="0.0" d="m463.3517 90.19948c0 4.470459 -3.6240234 8.094482 -8.094482 8.094482l-41.35434 0c-4.470459 0 -8.094482 3.624031 -8.094482 8.09449l0 0c0 -4.470459 -3.6240234 -8.09449 -8.094513 -8.09449l-41.35431 0l0 0c-4.470459 0 -8.094482 -3.6240234 -8.094482 -8.094482z" fill-rule="evenodd"/><path fill="#000000" fill-opacity="0.0" d="m463.3517 90.19948c0 4.470459 -3.6240234 8.094482 -8.094482 8.094482l-41.35434 0c-4.470459 0 -8.094482 3.624031 -8.094482 8.09449l0 0c0 -4.470459 -3.6240234 -8.09449 -8.094513 -8.09449l-41.35431 0l0 0c-4.470459 0 -8.094482 -3.6240234 -8.094482 -8.094482" fill-rule="evenodd"/><path stroke="#666666" stroke-width="2.0" stroke-linejoin="round" stroke-linecap="butt" d="m463.3517 90.19948c0 4.470459 -3.6240234 8.094482 -8.094482 8.094482l-41.35434 0c-4.470459 0 -8.094482 3.624031 -8.094482 8.09449l0 0c0 -4.470459 -3.6240234 -8.09449 -8.094513 -8.09449l-41.35431 0l0 0c-4.470459 0 -8.094482 -3.6240234 -8.094482 -8.094482" fill-rule="evenodd"/><path fill="#000000" fill-opacity="0.0" d="m125.543304 59.464565l25.70079 0" fill-rule="evenodd"/><path stroke="#434343" stroke-width="3.0" stroke-linejoin="round" stroke-linecap="butt" d="m125.543304 59.464565l7.7007904 0" fill-rule="evenodd"/><path fill="#434343" stroke="#434343" stroke-width="3.0" stroke-linecap="butt" d="m133.2441 64.41976l13.614288 -4.9551964l-13.614288 -4.9551964z" fill-rule="evenodd"/><path fill="#000000" fill-opacity="0.0" d="m125.543304 181.16536l25.70079 0" fill-rule="evenodd"/><path stroke="#434343" stroke-width="3.0" stroke-linejoin="round" stroke-linecap="butt" d="m125.543304 181.16536l7.7007904 0" fill-rule="evenodd"/><path fill="#434343" stroke="#434343" stroke-width="3.0" stroke-linecap="butt" d="m133.2441 186.12054l13.614288 -4.955185l-13.614288 -4.9552z" fill-rule="evenodd"/><path fill="#000000" fill-opacity="0.0" d="m463.3517 211.93701c0 4.470459 -3.6240234 8.094482 -8.094482 8.094482l-41.35434 0c-4.470459 0 -8.094482 3.6240234 -8.094482 8.094498l0 0c0 -4.4704742 -3.6240234 -8.094498 -8.094513 -8.094498l-41.35431 0l0 0c-4.470459 0 -8.094482 -3.6240234 -8.094482 -8.094482z" fill-rule="evenodd"/><path fill="#000000" fill-opacity="0.0" d="m463.3517 211.93701c0 4.470459 -3.6240234 8.094482 -8.094482 8.094482l-41.35434 0c-4.470459 0 -8.094482 3.6240234 -8.094482 8.094498l0 0c0 -4.4704742 -3.6240234 -8.094498 -8.094513 -8.094498l-41.35431 0l0 0c-4.470459 0 -8.094482 -3.6240234 -8.094482 -8.094482" fill-rule="evenodd"/><path stroke="#666666" stroke-width="2.0" stroke-linejoin="round" stroke-linecap="butt" d="m463.3517 211.93701c0 4.470459 -3.6240234 8.094482 -8.094482 8.094482l-41.35434 0c-4.470459 0 -8.094482 3.6240234 -8.094482 8.094498l0 0c0 -4.4704742 -3.6240234 -8.094498 -8.094513 -8.094498l-41.35431 0l0 0c-4.470459 0 -8.094482 -3.6240234 -8.094482 -8.094482" fill-rule="evenodd"/><path fill="#000000" fill-opacity="0.0" d="m22.267717 0l81.00787 0l0 42.015747l-81.00787 0z" fill-rule="evenodd"/><path fill="#000000" d="m48.36841 21.341873l0 5.578125l-1.796875 0l0 -13.375l3.78125 0q1.265625 0 2.1875 0.265625q0.921875 0.25 1.515625 0.734375q0.609375 0.484375 0.890625 1.171875q0.296875 0.6875 0.296875 1.546875q0 0.703125 -0.234375 1.328125q-0.21875 0.609375 -0.640625 1.09375q-0.421875 0.484375 -1.03125 0.84375q-0.609375 0.34375 -1.390625 0.515625q0.34375 0.1875 0.59375 0.5625l3.90625 5.3125l-1.609375 0q-0.484375 0 -0.71875 -0.375l-3.46875 -4.78125q-0.15625 -0.21875 -0.34375 -0.3125q-0.1875 -0.109375 -0.5625 -0.109375l-1.375 0zm0 -1.3125l1.890625 0q0.796875 0 1.390625 -0.1875q0.609375 -0.203125 1.015625 -0.546875q0.40625 -0.34375 0.609375 -0.828125q0.203125 -0.5 0.203125 -1.078125q0 -1.203125 -0.796875 -1.796875q-0.78125 -0.609375 -2.328125 -0.609375l-1.984375 0l0 5.046875zm13.514633 -2.703125q0.84375 0 1.5625 0.28125q0.71875 0.28125 1.234375 0.828125q0.53125 0.53125 0.8125 1.328125q0.296875 0.78125 0.296875 1.78125q0 0.390625 -0.078125 0.53125q-0.078125 0.125 -0.3125 0.125l-6.296875 0q0.015625 0.890625 0.234375 1.5625q0.234375 0.65625 0.625 1.109375q0.390625 0.4375 0.9375 0.65625q0.546875 0.21875 1.203125 0.21875q0.625 0 1.078125 -0.140625q0.453125 -0.15625 0.78125 -0.3125q0.328125 -0.171875 0.546875 -0.3125q0.21875 -0.15625 0.375 -0.15625q0.21875 0 0.328125 0.15625l0.46875 0.609375q-0.3125 0.375 -0.75 0.65625q-0.421875 0.265625 -0.921875 0.453125q-0.484375 0.171875 -1.015625 0.25q-0.515625 0.09375 -1.015625 0.09375q-0.984375 0 -1.8125 -0.328125q-0.828125 -0.328125 -1.4375 -0.96875q-0.59375 -0.640625 -0.9375 -1.578125q-0.328125 -0.9375 -0.328125 -2.171875q0 -0.984375 0.296875 -1.84375q0.3125 -0.859375 0.875 -1.484375q0.578125 -0.625 1.390625 -0.984375q0.828125 -0.359375 1.859375 -0.359375zm0.03125 1.21875q-1.203125 0 -1.890625 0.703125q-0.6875 0.6875 -0.859375 1.921875l5.140625 0q0 -0.578125 -0.171875 -1.0625q-0.15625 -0.484375 -0.46875 -0.828125q-0.296875 -0.359375 -0.75 -0.546875q-0.4375 -0.1875 -1.0 -0.1875zm12.932129 8.375l-0.734375 0q-0.234375 0 -0.390625 -0.078125q-0.140625 -0.078125 -0.1875 -0.3125l-0.1875 -0.875q-0.375 0.328125 -0.734375 0.59375q-0.359375 0.265625 -0.75 0.453125q-0.390625 0.1875 -0.828125 0.28125q-0.4375 0.09375 -0.984375 0.09375q-0.546875 0 -1.03125 -0.15625q-0.484375 -0.15625 -0.84375 -0.46875q-0.34375 -0.3125 -0.5625 -0.78125q-0.203125 -0.46875 -0.203125 -1.109375q0 -0.5625 0.296875 -1.078125q0.3125 -0.515625 1.0 -0.90625q0.6875 -0.40625 1.796875 -0.65625q1.109375 -0.265625 2.71875 -0.3125l0 -0.734375q0 -1.09375 -0.46875 -1.65625q-0.46875 -0.578125 -1.40625 -0.578125q-0.59375 0 -1.015625 0.15625q-0.40625 0.15625 -0.71875 0.359375q-0.296875 0.1875 -0.515625 0.34375q-0.21875 0.140625 -0.4375 0.140625q-0.171875 0 -0.296875 -0.078125q-0.125 -0.09375 -0.203125 -0.21875l-0.296875 -0.53125q0.78125 -0.765625 1.6875 -1.140625q0.90625 -0.375 2.015625 -0.375q0.78125 0 1.390625 0.265625q0.625 0.265625 1.046875 0.734375q0.421875 0.46875 0.625 1.125q0.21875 0.65625 0.21875 1.453125l0 6.046875zm-4.296875 -1.015625q0.4375 0 0.796875 -0.078125q0.359375 -0.09375 0.671875 -0.25q0.328125 -0.171875 0.625 -0.40625q0.296875 -0.234375 0.578125 -0.53125l0 -1.96875q-1.15625 0.03125 -1.953125 0.1875q-0.796875 0.140625 -1.3125 0.375q-0.5 0.234375 -0.734375 0.546875q-0.21875 0.3125 -0.21875 0.703125q0 0.375 0.125 0.65625q0.125 0.265625 0.328125 0.4375q0.203125 0.171875 0.484375 0.25q0.28125 0.078125 0.609375 0.078125zm8.66185 -12.71875l0 13.734375l-1.65625 0l0 -13.734375l1.65625 0z" fill-rule="nonzero"/><path fill="#000000" fill-opacity="0.0" d="m268.80316 0l81.00787 0l0 42.015747l-81.00787 0z" fill-rule="evenodd"/><path fill="#000000" d="m293.35538 21.919998l0 5.0l-1.796875 0l0 -13.375l3.9375 0q1.28125 0 2.21875 0.296875q0.9375 0.296875 1.546875 0.84375q0.609375 0.53125 0.90625 1.296875q0.3125 0.765625 0.3125 1.71875q0 0.921875 -0.328125 1.703125q-0.328125 0.765625 -0.953125 1.328125q-0.625 0.5625 -1.5625 0.875q-0.9375 0.3125 -2.140625 0.3125l-2.140625 0zm0 -1.4375l2.140625 0q0.78125 0 1.375 -0.203125q0.59375 -0.203125 0.984375 -0.5625q0.40625 -0.375 0.609375 -0.890625q0.203125 -0.515625 0.203125 -1.125q0 -1.28125 -0.796875 -2.0q-0.78125 -0.71875 -2.375 -0.71875l-2.140625 0l0 5.5zm9.148987 6.4375l0 -9.453125l0.953125 0q0.265625 0 0.375 0.109375q0.109375 0.09375 0.140625 0.34375l0.109375 1.484375q0.484375 -0.984375 1.1875 -1.546875q0.71875 -0.5625 1.6875 -0.5625q0.390625 0 0.703125 0.09375q0.328125 0.09375 0.59375 0.25l-0.21875 1.234375q-0.0625 0.234375 -0.28125 0.234375q-0.140625 0 -0.40625 -0.078125q-0.265625 -0.09375 -0.75 -0.09375q-0.875 0 -1.453125 0.5q-0.578125 0.5 -0.984375 1.46875l0 6.015625l-1.65625 0zm11.268463 -9.59375q0.84375 0 1.5625 0.28125q0.71875 0.28125 1.234375 0.828125q0.53125 0.53125 0.8125 1.328125q0.296875 0.78125 0.296875 1.78125q0 0.390625 -0.078125 0.53125q-0.078125 0.125 -0.3125 0.125l-6.296875 0q0.015625 0.890625 0.234375 1.5625q0.234375 0.65625 0.625 1.109375q0.390625 0.4375 0.9375 0.65625q0.546875 0.21875 1.203125 0.21875q0.625 0 1.078125 -0.140625q0.453125 -0.15625 0.78125 -0.3125q0.328125 -0.171875 0.546875 -0.3125q0.21875 -0.15625 0.375 -0.15625q0.21875 0 0.328125 0.15625l0.46875 0.609375q-0.3125 0.375 -0.75 0.65625q-0.421875 0.265625 -0.921875 0.453125q-0.484375 0.171875 -1.015625 0.25q-0.515625 0.09375 -1.015625 0.09375q-0.984375 0 -1.8125 -0.328125q-0.828125 -0.328125 -1.4375 -0.96875q-0.59375 -0.640625 -0.9375 -1.578125q-0.328125 -0.9375 -0.328125 -2.171875q0 -0.984375 0.296875 -1.84375q0.3125 -0.859375 0.875 -1.484375q0.578125 -0.625 1.390625 -0.984375q0.828125 -0.359375 1.859375 -0.359375zm0.03125 1.21875q-1.203125 0 -1.890625 0.703125q-0.6875 0.6875 -0.859375 1.921875l5.140625 0q0 -0.578125 -0.171875 -1.0625q-0.15625 -0.484375 -0.46875 -0.828125q-0.296875 -0.359375 -0.75 -0.546875q-0.4375 -0.1875 -1.0 -0.1875zm12.650879 8.375q-0.359375 0 -0.453125 -0.34375l-0.140625 -1.15625q-0.609375 0.75 -1.390625 1.1875q-0.78125 0.4375 -1.78125 0.4375q-0.8125 0 -1.484375 -0.3125q-0.65625 -0.3125 -1.125 -0.90625q-0.46875 -0.609375 -0.71875 -1.515625q-0.25 -0.90625 -0.25 -2.078125q0 -1.046875 0.28125 -1.9375q0.28125 -0.90625 0.796875 -1.5625q0.53125 -0.671875 1.28125 -1.046875q0.765625 -0.390625 1.71875 -0.390625q0.875 0 1.484375 0.296875q0.625 0.296875 1.109375 0.828125l0 -5.234375l1.65625 0l0 13.734375l-0.984375 0zm-3.21875 -1.21875q0.8125 0 1.421875 -0.359375q0.609375 -0.375 1.125 -1.0625l0 -4.5625q-0.453125 -0.625 -1.0 -0.875q-0.546875 -0.25 -1.21875 -0.25q-1.3125 0 -2.03125 0.953125q-0.703125 0.9375 -0.703125 2.6875q0 0.921875 0.15625 1.578125q0.15625 0.65625 0.46875 1.078125q0.3125 0.421875 0.75 0.625q0.453125 0.1875 1.03125 0.1875z" fill-rule="nonzero"/><path fill="#000000" fill-opacity="0.0" d="m268.80316 120.0l81.00787 0l0 42.015747l-81.00787 0z" fill-rule="evenodd"/><path fill="#000000" d="m293.35538 141.92l0 5.0l-1.796875 0l0 -13.375l3.9375 0q1.28125 0 2.21875 0.296875q0.9375 0.296875 1.546875 0.84375q0.609375 0.53125 0.90625 1.296875q0.3125 0.765625 0.3125 1.71875q0 0.921875 -0.328125 1.703125q-0.328125 0.765625 -0.953125 1.328125q-0.625 0.5625 -1.5625 0.875q-0.9375 0.3125 -2.140625 0.3125l-2.140625 0zm0 -1.4375l2.140625 0q0.78125 0 1.375 -0.203125q0.59375 -0.203125 0.984375 -0.5625q0.40625 -0.375 0.609375 -0.890625q0.203125 -0.515625 0.203125 -1.125q0 -1.28125 -0.796875 -2.0q-0.78125 -0.71875 -2.375 -0.71875l-2.140625 0l0 5.5zm9.148987 6.4375l0 -9.453125l0.953125 0q0.265625 0 0.375 0.109375q0.109375 0.09375 0.140625 0.34375l0.109375 1.484375q0.484375 -0.984375 1.1875 -1.546875q0.71875 -0.5625 1.6875 -0.5625q0.390625 0 0.703125 0.09375q0.328125 0.09375 0.59375 0.25l-0.21875 1.234375q-0.0625 0.234375 -0.28125 0.234375q-0.140625 0 -0.40625 -0.078125q-0.265625 -0.09375 -0.75 -0.09375q-0.875 0 -1.453125 0.5q-0.578125 0.5 -0.984375 1.46875l0 6.015625l-1.65625 0zm11.268463 -9.59375q0.84375 0 1.5625 0.28125q0.71875 0.28125 1.234375 0.828125q0.53125 0.53125 0.8125 1.328125q0.296875 0.78125 0.296875 1.78125q0 0.390625 -0.078125 0.53125q-0.078125 0.125 -0.3125 0.125l-6.296875 0q0.015625 0.890625 0.234375 1.5625q0.234375 0.65625 0.625 1.109375q0.390625 0.4375 0.9375 0.65625q0.546875 0.21875 1.203125 0.21875q0.625 0 1.078125 -0.140625q0.453125 -0.15625 0.78125 -0.3125q0.328125 -0.171875 0.546875 -0.3125q0.21875 -0.15625 0.375 -0.15625q0.21875 0 0.328125 0.15625l0.46875 0.609375q-0.3125 0.375 -0.75 0.65625q-0.421875 0.265625 -0.921875 0.453125q-0.484375 0.171875 -1.015625 0.25q-0.515625 0.09375 -1.015625 0.09375q-0.984375 0 -1.8125 -0.328125q-0.828125 -0.328125 -1.4375 -0.96875q-0.59375 -0.640625 -0.9375 -1.578125q-0.328125 -0.9375 -0.328125 -2.171875q0 -0.984375 0.296875 -1.84375q0.3125 -0.859375 0.875 -1.484375q0.578125 -0.625 1.390625 -0.984375q0.828125 -0.359375 1.859375 -0.359375zm0.03125 1.21875q-1.203125 0 -1.890625 0.703125q-0.6875 0.6875 -0.859375 1.921875l5.140625 0q0 -0.578125 -0.171875 -1.0625q-0.15625 -0.484375 -0.46875 -0.828125q-0.296875 -0.359375 -0.75 -0.546875q-0.4375 -0.1875 -1.0 -0.1875zm12.650879 8.375q-0.359375 0 -0.453125 -0.34375l-0.140625 -1.15625q-0.609375 0.75 -1.390625 1.1875q-0.78125 0.4375 -1.78125 0.4375q-0.8125 0 -1.484375 -0.3125q-0.65625 -0.3125 -1.125 -0.90625q-0.46875 -0.609375 -0.71875 -1.515625q-0.25 -0.90625 -0.25 -2.078125q0 -1.046875 0.28125 -1.9375q0.28125 -0.90625 0.796875 -1.5625q0.53125 -0.671875 1.28125 -1.046875q0.765625 -0.390625 1.71875 -0.390625q0.875 0 1.484375 0.296875q0.625 0.296875 1.109375 0.828125l0 -5.234375l1.65625 0l0 13.734375l-0.984375 0zm-3.21875 -1.21875q0.8125 0 1.421875 -0.359375q0.609375 -0.375 1.125 -1.0625l0 -4.5625q-0.453125 -0.625 -1.0 -0.875q-0.546875 -0.25 -1.21875 -0.25q-1.3125 0 -2.03125 0.953125q-0.703125 0.9375 -0.703125 2.6875q0 0.921875 0.15625 1.578125q0.15625 0.65625 0.46875 1.078125q0.3125 0.421875 0.75 0.625q0.453125 0.1875 1.03125 0.1875z" fill-rule="nonzero"/><path fill="#000000" fill-opacity="0.0" d="m22.267717 120.0l81.00787 0l0 42.015747l-81.00787 0z" fill-rule="evenodd"/><path fill="#000000" d="m46.819946 141.92l0 5.0l-1.796875 0l0 -13.375l3.9375 0q1.28125 0 2.21875 0.296875q0.9375 0.296875 1.546875 0.84375q0.609375 0.53125 0.90625 1.296875q0.3125 0.765625 0.3125 1.71875q0 0.921875 -0.328125 1.703125q-0.328125 0.765625 -0.953125 1.328125q-0.625 0.5625 -1.5625 0.875q-0.9375 0.3125 -2.140625 0.3125l-2.140625 0zm0 -1.4375l2.140625 0q0.78125 0 1.375 -0.203125q0.59375 -0.203125 0.984375 -0.5625q0.40625 -0.375 0.609375 -0.890625q0.203125 -0.515625 0.203125 -1.125q0 -1.28125 -0.796875 -2.0q-0.78125 -0.71875 -2.375 -0.71875l-2.140625 0l0 5.5zm9.148972 6.4375l0 -9.453125l0.953125 0q0.265625 0 0.375 0.109375q0.109375 0.09375 0.140625 0.34375l0.109375 1.484375q0.484375 -0.984375 1.1875 -1.546875q0.71875 -0.5625 1.6875 -0.5625q0.390625 0 0.703125 0.09375q0.328125 0.09375 0.59375 0.25l-0.21875 1.234375q-0.0625 0.234375 -0.28125 0.234375q-0.140625 0 -0.40625 -0.078125q-0.265625 -0.09375 -0.75 -0.09375q-0.875 0 -1.453125 0.5q-0.578125 0.5 -0.984375 1.46875l0 6.015625l-1.65625 0zm11.268463 -9.59375q0.84375 0 1.5625 0.28125q0.71875 0.28125 1.234375 0.828125q0.53125 0.53125 0.8125 1.328125q0.296875 0.78125 0.296875 1.78125q0 0.390625 -0.078125 0.53125q-0.078125 0.125 -0.3125 0.125l-6.296875 0q0.015625 0.890625 0.234375 1.5625q0.234375 0.65625 0.625 1.109375q0.390625 0.4375 0.9375 0.65625q0.546875 0.21875 1.203125 0.21875q0.625 0 1.078125 -0.140625q0.453125 -0.15625 0.78125 -0.3125q0.328125 -0.171875 0.546875 -0.3125q0.21875 -0.15625 0.375 -0.15625q0.21875 0 0.328125 0.15625l0.46875 0.609375q-0.3125 0.375 -0.75 0.65625q-0.421875 0.265625 -0.921875 0.453125q-0.484375 0.171875 -1.015625 0.25q-0.515625 0.09375 -1.015625 0.09375q-0.984375 0 -1.8125 -0.328125q-0.828125 -0.328125 -1.4375 -0.96875q-0.59375 -0.640625 -0.9375 -1.578125q-0.328125 -0.9375 -0.328125 -2.171875q0 -0.984375 0.296875 -1.84375q0.3125 -0.859375 0.875 -1.484375q0.578125 -0.625 1.390625 -0.984375q0.828125 -0.359375 1.859375 -0.359375zm0.03125 1.21875q-1.203125 0 -1.890625 0.703125q-0.6875 0.6875 -0.859375 1.921875l5.140625 0q0 -0.578125 -0.171875 -1.0625q-0.15625 -0.484375 -0.46875 -0.828125q-0.296875 -0.359375 -0.75 -0.546875q-0.4375 -0.1875 -1.0 -0.1875zm12.650879 8.375q-0.359375 0 -0.453125 -0.34375l-0.140625 -1.15625q-0.609375 0.75 -1.390625 1.1875q-0.78125 0.4375 -1.78125 0.4375q-0.8125 0 -1.484375 -0.3125q-0.65625 -0.3125 -1.125 -0.90625q-0.46875 -0.609375 -0.71875 -1.515625q-0.25 -0.90625 -0.25 -2.078125q0 -1.046875 0.28125 -1.9375q0.28125 -0.90625 0.796875 -1.5625q0.53125 -0.671875 1.28125 -1.046875q0.765625 -0.390625 1.71875 -0.390625q0.875 0 1.484375 0.296875q0.625 0.296875 1.109375 0.828125l0 -5.234375l1.65625 0l0 13.734375l-0.984375 0zm-3.21875 -1.21875q0.8125 0 1.421875 -0.359375q0.609375 -0.375 1.125 -1.0625l0 -4.5625q-0.453125 -0.625 -1.0 -0.875q-0.546875 -0.25 -1.21875 -0.25q-1.3125 0 -2.03125 0.953125q-0.703125 0.9375 -0.703125 2.6875q0 0.921875 0.15625 1.578125q0.15625 0.65625 0.46875 1.078125q0.3125 0.421875 0.75 0.625q0.453125 0.1875 1.03125 0.1875z" fill-rule="nonzero"/><path fill="#000000" fill-opacity="0.0" d="m405.8084 106.38845l-343.02362 13.826775" fill-rule="evenodd"/><path stroke="#666666" stroke-width="2.0" stroke-linejoin="round" stroke-linecap="butt" stroke-dasharray="8.0,6.0" d="m405.8084 106.38845l-331.0334 13.34346" fill-rule="evenodd"/><path fill="#666666" stroke="#666666" stroke-width="2.0" stroke-linecap="butt" d="m74.64199 116.43113l-8.935783 3.666336l9.201881 2.935234z" fill-rule="evenodd"/><path fill="#000000" fill-opacity="0.0" d="m405.8084 228.12599l-82.64569 4.3149567" fill-rule="evenodd"/><path stroke="#666666" stroke-width="2.0" stroke-linejoin="round" stroke-linecap="butt" stroke-dasharray="8.0,6.0" d="m405.8084 228.12599l-70.66202 3.68927" fill-rule="evenodd"/><path fill="#666666" stroke="#666666" stroke-width="2.0" stroke-linecap="butt" d="m334.97415 228.5163l-8.891602 3.7722015l9.236084 2.8257446z" fill-rule="evenodd"/><path fill="#000000" fill-opacity="0.0" d="m120.314964 136.4042c0 -4.4704742 -3.624031 -8.094498 -8.09449 -8.094498l-41.354332 0c-4.4704666 0 -8.09449 -3.6240234 -8.09449 -8.094482l0 0c0 4.470459 -3.6240234 8.094482 -8.094486 8.094482l-41.354332 0l0 0c-4.470463 0 -8.094488 3.6240234 -8.094488 8.094498z" fill-rule="evenodd"/><path fill="#000000" fill-opacity="0.0" d="m120.314964 136.4042c0 -4.4704742 -3.624031 -8.094498 -8.09449 -8.094498l-41.354332 0c-4.4704666 0 -8.09449 -3.6240234 -8.09449 -8.094482l0 0c0 4.470459 -3.6240234 8.094482 -8.094486 8.094482l-41.354332 0l0 0c-4.470463 0 -8.094488 3.6240234 -8.094488 8.094498" fill-rule="evenodd"/><path stroke="#666666" stroke-width="2.0" stroke-linejoin="round" stroke-linecap="butt" d="m120.314964 136.4042c0 -4.4704742 -3.624031 -8.094498 -8.09449 -8.094498l-41.354332 0c-4.4704666 0 -8.09449 -3.6240234 -8.09449 -8.094482l0 0c0 4.470459 -3.6240234 8.094482 -8.094486 8.094482l-41.354332 0l0 0c-4.470463 0 -8.094488 3.6240234 -8.094488 8.094498" fill-rule="evenodd"/></g></svg>